<svg width="900" height="134" viewBox="0 0 900 134" fill="none" xmlns="http://www.w3.org/2000/svg">
<path d="M4.87 105.59C11.59 109.6 22.33 112.82 32.75 112.82C46.53 112.82 53.74 106.25 53.74 96.67C53.74 87.09 47.54 81.88 33.26 75.66C13.76 67.25 1.67999 55.18 1.67999 38.38C1.67999 17.21 18.31 0.909973 46.18 0.909973C58.46 0.909973 67.86 3.75996 73.91 6.78996L68.71 27.11C64.19 24.76 56.29 21.58 45.68 21.58C32.58 21.58 26.71 28.62 26.71 35.86C26.71 45.09 33.08 49.3 48.88 56.53C69.55 65.76 78.79 77.68 78.79 94.66C78.79 117.19 61.82 133.66 31.75 133.66C18.98 133.66 6.03999 130.13 -0.0100098 126.43L4.88 105.61L4.87 105.59Z" fill="white"/>
<path d="M169.9 111.12V131.94H97.67V2.75H167.22V23.57H122.53V54.84H164.69V75.16H122.53V111.13H169.9V111.12Z" fill="white"/>
<path d="M247.46 2.75L283.57 131.95H257.54L248.28 97.85H213.68L204.77 131.95H179.58L216.2 2.75H247.47H247.46ZM217.21 79.03H244.78L237.03 49.61C235.02 41.55 232.84 31.12 231.17 23.22H230.66C228.98 31.3 226.79 41.88 224.95 49.45L217.22 79.02L217.21 79.03Z" fill="white"/>
<path d="M300.26 4.41C309.34 2.75 321.11 1.75 333.7 1.75C355.2 1.75 369.82 6.28 380.56 15.17C392.83 25.27 400.05 41.21 400.05 64.56C400.05 92.3 390.49 108.43 380.56 117.32C368.81 127.9 350.85 133.13 328.32 133.13C316.38 133.13 306.82 132.3 300.25 131.47V4.42L300.26 4.41ZM324.95 112.82C327.48 113.3 331.18 113.3 334.54 113.3C358.24 113.47 374.03 98.83 374.03 64.9C374.03 35.67 359.74 21.22 336.72 21.22C331.51 21.22 327.64 21.74 324.95 22.22V112.82Z" fill="white"/>
<path d="M418.77 4.41C427.34 2.92 439.44 1.75 452.03 1.75C468.33 1.75 501.25 3.76001 501.25 38.38C501.25 54.17 491.17 65.75 479.08 70.48V70.96C488.14 74.49 493.18 83.22 496.22 96.33C499.89 111.65 503.27 127.08 505.79 131.95H480.25C478.41 128.25 475.21 117.01 472.18 101.38C468.83 84.74 463.63 79.52 451.87 79.52H443.47V131.95H418.78V4.41H418.77ZM443.46 61.05H453.71C467.82 61.05 476.38 52.82 476.38 40.56C476.38 23.93 463.96 20.71 454.89 20.71C449.32 20.71 445.47 21.06 443.45 21.75V61.06L443.46 61.05Z" fill="white"/>
<path d="M623.81 65.75C623.81 110.78 600.96 133.78 568.87 133.78C534.75 133.78 515.45 105.25 515.45 67.77C515.45 30.29 536.78 0.73999 570.54 0.73999C606.33 0.73999 623.8 31.3 623.8 65.74L623.81 65.75ZM541.49 67.25C541.49 92.64 551.39 113.47 569.72 113.47C588.05 113.47 597.77 92.8 597.77 66.74C597.77 43.07 588.85 21.04 569.87 21.04C550.89 21.04 541.49 43.56 541.49 67.25Z" fill="white"/>
<path d="M736.75 2.74998V131.95H711.9L684.18 78.53C677.29 65.25 669.72 49.29 664.35 35.18H663.68C664.68 51.14 665.19 69.28 665.19 92.3V131.95H642.67V2.74998H669.54L696.77 55.18C703.67 68.1 710.89 83.89 716.09 97.34H716.42C714.91 80.88 714.24 62.56 714.24 41.55V2.73999H736.74L736.75 2.74998Z" fill="white"/>
<path d="M762.01 131.95V2.75H786.88V131.95H762.01Z" fill="white"/>
<path d="M865.3 66.08L899.89 131.95H872.01L860.41 106.91C856.04 98.02 853.03 91.12 849.82 83.39H849.33C846.63 91.12 843.62 98.19 839.75 107.08L829.17 131.95H801.95L835.4 66.25L803.14 2.75H830.84L842.44 28.14C845.8 35.51 848.32 42.06 851.35 49.29H851.69C854.7 41.21 856.91 35.33 860.09 27.97L871.01 2.75999H898.39L865.31 66.09L865.3 66.08Z" fill="white"/>
</svg>
